<?xml version="1.0" encoding="UTF-8" standalone="no"?>
<!-- Created with Inkscape (http://www.inkscape.org/) -->

<svg
   version="1.1"
   id="svg1"
   width="242.63231"
   height="254.53964"
   viewBox="0 0 242.63231 254.53964"
   sodipodi:docname="loom.png"
   xmlns:inkscape="http://www.inkscape.org/namespaces/inkscape"
   xmlns:sodipodi="http://sodipodi.sourceforge.net/DTD/sodipodi-0.dtd"
   xmlns="http://www.w3.org/2000/svg"
   xmlns:svg="http://www.w3.org/2000/svg">
  <defs
     id="defs1">
    <linearGradient
       id="swatch61"
       inkscape:swatch="solid">
      <stop
         style="stop-color:#000000;stop-opacity:1;"
         offset="0"
         id="stop61" />
    </linearGradient>
    <filter
       inkscape:label="Hue to White"
       inkscape:menu="Color"
       inkscape:menu-tooltip="Fades hue progressively to white"
       style="color-interpolation-filters:sRGB"
       id="filter13"
       x="-0.0020824305"
       y="-0.0019159448"
       width="1.0041728"
       height="1.0038888">
      <feColorMatrix
         type="hueRotate"
         values="180"
         result="fbSourceGraphic"
         in="SourceGraphic"
         id="feColorMatrix7" />
      <feColorMatrix
         values="1 0 0 0 0 0 1 0 0 0 0 0 1 0 0 -0.2125 -0.7154 -0.0721 1 0 "
         in="SourceGraphic"
         result="result1"
         id="feColorMatrix8" />
      <feColorMatrix
         type="hueRotate"
         values="0"
         id="feColorMatrix9" />
      <feColorMatrix
         values="1 0 0 0 0 0 1 0 0 0 0 0 1 0 0 0 0 0 1 0 "
         result="result3"
         id="feColorMatrix10" />
      <feComposite
         in2="result3"
         result="result6"
         operator="atop"
         id="feComposite10" />
      <feComposite
         in2="result6"
         operator="arithmetic"
         k2="0.5"
         k1="0.5"
         k3="0.5"
         in="result6"
         result="result4"
         id="feComposite11"
         k4="0" />
      <feBlend
         in2="fbSourceGraphic"
         mode="normal"
         result="result2"
         in="result4"
         id="feBlend11" />
      <feComposite
         in2="result2"
         operator="arithmetic"
         k2="1"
         result="result5"
         id="feComposite12"
         k1="0"
         k3="0"
         k4="0" />
      <feComposite
         in2="SourceGraphic"
         operator="in"
         result="fbSourceGraphic"
         id="feComposite13" />
      <feColorMatrix
         result="fbSourceGraphicAlpha"
         in="fbSourceGraphic"
         values="0 0 0 -1 0 0 0 0 -1 0 0 0 0 -1 0 0 0 0 1 0"
         id="feColorMatrix13" />
      <feColorMatrix
         id="feColorMatrix14"
         values="1 0 0 0 0 1 0 0 0 0 1 0 0 0 0 0 0 0 0 1 "
         type="matrix"
         result="r"
         in="fbSourceGraphic" />
      <feColorMatrix
         id="feColorMatrix15"
         values="0 1 0 0 0 0 1 0 0 0 0 1 0 0 0 0 0 0 0 1 "
         type="matrix"
         result="g"
         in="fbSourceGraphic" />
      <feColorMatrix
         id="feColorMatrix16"
         values="0 0 1 0 0 0 0 1 0 0 0 0 1 0 0 0 0 0 0 1 "
         type="matrix"
         result="b"
         in="fbSourceGraphic" />
      <feBlend
         id="feBlend16"
         result="minrg"
         in="r"
         mode="darken"
         in2="g" />
      <feBlend
         id="feBlend17"
         result="p"
         in="minrg"
         mode="darken"
         in2="b" />
      <feBlend
         id="feBlend18"
         result="maxrg"
         in="r"
         mode="lighten"
         in2="g" />
      <feBlend
         id="feBlend19"
         result="q"
         in="maxrg"
         mode="lighten"
         in2="b" />
      <feComponentTransfer
         id="feComponentTransfer19"
         result="q2"
         in="q">
        <feFuncR
           id="feFuncR19"
           slope="0"
           type="linear" />
      </feComponentTransfer>
      <feBlend
         id="feBlend20"
         result="pq"
         in="p"
         mode="lighten"
         in2="q2" />
      <feColorMatrix
         id="feColorMatrix20"
         values="-1 1 0 0 0 -1 1 0 0 0 -1 1 0 0 0 0 0 0 0 1 "
         type="matrix"
         result="qminp"
         in="pq" />
      <feComposite
         id="feComposite20"
         k3="1"
         operator="arithmetic"
         result="qminpc"
         in="qminp"
         in2="qminp"
         k1="0"
         k2="0"
         k4="0" />
      <feBlend
         id="feBlend21"
         result="result2"
         in2="fbSourceGraphic"
         mode="screen" />
      <feComposite
         id="feComposite21"
         operator="in"
         in="result2"
         in2="fbSourceGraphic"
         result="fbSourceGraphic" />
      <feColorMatrix
         result="fbSourceGraphicAlpha"
         in="fbSourceGraphic"
         values="0 0 0 -1 0 0 0 0 -1 0 0 0 0 -1 0 0 0 0 1 0"
         id="feColorMatrix21" />
      <feColorMatrix
         id="feColorMatrix22"
         values="1 0 0 0 0 1 0 0 0 0 1 0 0 0 0 0 0 0 0 1 "
         type="matrix"
         result="r"
         in="fbSourceGraphic" />
      <feColorMatrix
         id="feColorMatrix23"
         values="0 1 0 0 0 0 1 0 0 0 0 1 0 0 0 0 0 0 0 1 "
         type="matrix"
         result="g"
         in="fbSourceGraphic" />
      <feColorMatrix
         id="feColorMatrix24"
         values="0 0 1 0 0 0 0 1 0 0 0 0 1 0 0 0 0 0 0 1 "
         type="matrix"
         result="b"
         in="fbSourceGraphic" />
      <feBlend
         id="feBlend24"
         result="minrg"
         in="r"
         mode="darken"
         in2="g" />
      <feBlend
         id="feBlend25"
         result="p"
         in="minrg"
         mode="darken"
         in2="b" />
      <feBlend
         id="feBlend26"
         result="maxrg"
         in="r"
         mode="lighten"
         in2="g" />
      <feBlend
         id="feBlend27"
         result="q"
         in="maxrg"
         mode="lighten"
         in2="b" />
      <feComponentTransfer
         id="feComponentTransfer27"
         result="q2"
         in="q">
        <feFuncR
           id="feFuncR27"
           slope="0"
           type="linear" />
      </feComponentTransfer>
      <feBlend
         id="feBlend28"
         result="pq"
         in="p"
         mode="lighten"
         in2="q2" />
      <feColorMatrix
         id="feColorMatrix28"
         values="-1 1 0 0 0 -1 1 0 0 0 -1 1 0 0 0 0 0 0 0 1 "
         type="matrix"
         result="qminp"
         in="pq" />
      <feComposite
         id="feComposite28"
         k3="1"
         operator="arithmetic"
         result="qminpc"
         in="qminp"
         in2="qminp"
         k1="0"
         k2="0"
         k4="0" />
      <feBlend
         id="feBlend29"
         result="result2"
         in2="fbSourceGraphic"
         mode="screen" />
      <feComposite
         id="feComposite29"
         operator="in"
         in="result2"
         in2="fbSourceGraphic"
         result="result1" />
    </filter>
  </defs>
  <sodipodi:namedview
     id="namedview1"
     pagecolor="#ffffff"
     bordercolor="#000000"
     borderopacity="0.25"
     inkscape:showpageshadow="2"
     inkscape:pageopacity="0.0"
     inkscape:pagecheckerboard="0"
     inkscape:deskcolor="#d1d1d1">
    <inkscape:page
       x="0"
       y="0"
       width="242.63231"
       height="254.53964"
       id="page2"
       margin="0"
       bleed="0" />
  </sodipodi:namedview>
  <g
     inkscape:groupmode="layer"
     inkscape:label="Image"
     id="g1"
     transform="translate(-6.7959166,-0.73365993)">
    <path
       style="display:inline;fill:#000000;fill-opacity:1;stroke:#000000;stroke-opacity:1;filter:url(#filter13)"
       d="m 147,254.11836 c -3.237,-0.57189 -3.49386,-0.88136 -3.41833,-4.11836 0.0449,-1.925 0.90563,-8 1.91268,-13.5 1.15074,-6.2847 1.56511,-11.40851 1.11531,-13.79111 l -0.71571,-3.79111 -7.69698,0.29111 L 130.5,219.5 l 0.06,6 c 0.033,3.3 0.66546,10.36962 1.40542,15.71027 1.57523,11.36909 1.01802,12.78973 -5.01646,12.78973 -3.40403,0 -6.96476,-1.9607 -6.93992,-3.82143 0.005,-0.37321 1.12998,-5.62036 2.5,-11.66033 3.95378,-17.43097 3.29182,-19.87067 -5.24308,-19.32368 L 112.5,219.5 l -0.34887,4 c -0.19187,2.2 0.42955,9.03441 1.38095,15.18758 0.95139,6.15317 1.46,11.89067 1.13025,12.75 -0.83775,2.18315 -6.88592,2.0117 -9.71018,-0.27525 l -2.26943,-1.83766 1.65864,-9.95599 C 106.50167,226.4014 106.44677,223.44677 104,221 c -1.51112,-1.51112 -3.33333,-2 -7.454687,-2 h -5.454687 l -0.68289,3.64012 c -0.400767,2.13627 0.03466,7.82636 1.053967,13.77313 0.955271,5.57317 1.579681,11.24761 1.387577,12.60989 -0.317062,2.24839 -0.837977,2.49592 -5.647301,2.68351 -4.116907,0.16058 -5.438382,-0.15913 -5.927628,-1.43409 -0.346284,-0.9024 0.415702,-6.8954 1.693303,-13.31779 2.060032,-10.35558 2.165677,-12.03227 0.933517,-14.81591 C 82.665819,219.348 82.051791,219 78.362877,219 c -5.9376,0 -6.791785,3.71456 -3.81039,16.57009 0.853869,3.68181 1.416369,8.32223 1.25,10.31205 -0.29681,3.54997 -0.386936,3.62074 -4.802487,3.77144 -6.371856,0.21748 -7.361257,-0.92276 -6.578648,-7.58153 0.35531,-3.02314 1.391894,-8.29579 2.30352,-11.71701 1.321194,-4.95829 1.42016,-6.74131 0.487754,-8.78772 C 66.127134,219.18492 65.563093,219 59.381956,219 h -6.660922 l 0.508825,11.5302 c 0.502497,11.38681 0.477684,11.55469 -1.995376,13.5 -3.762468,2.95955 -10.615798,2.67939 -13.86186,-0.56667 -2.510098,-2.5101 -2.528994,-2.65178 -1.817585,-13.62818 l 0.718884,-11.09171 -12.551173,0.72393 -12.551174,0.72392 -1.8357874,-2.80177 c -2.5808288,-3.93884 -2.500623,-12.44511 0.1449088,-15.36839 1.8687166,-2.06491 2.6884806,-2.17123 14.4999996,-1.8806 L 36.5,200.44878 36.814526,196.6546 c 0.172989,-2.0868 -0.126738,-4.32587 -0.666059,-4.97571 -0.640914,-0.77225 -0.629113,-12.78535 0.03407,-34.68021 C 36.740593,138.57441 36.892644,109.55 36.520425,92.5 35.728825,56.239648 35.728951,56.122704 36.567387,49.110913 l 0.644401,-5.389088 -12.753672,0.49131 C 10.069851,44.767414 8.6975765,44.235324 7.4567137,37.620956 6.7885547,34.059362 8.3513302,27.518934 10.13371,26.417363 c 0.543289,-0.335772 6.550108,-0.552811 13.348486,-0.48231 6.798378,0.0705 12.582815,-0.231225 12.854304,-0.670504 0.271489,-0.439278 0.07197,-4.567432 -0.443373,-9.173675 C 34.82238,6.5203313 35.654631,4.2141245 40.974325,2.0106349 43.433729,0.99191662 44.939168,0.96480622 48.007117,1.8839862 54.737384,3.9004233 55.169846,4.8634638 54.395277,16.10966 L 53.714091,26 h 5.487967 c 4.217975,0 5.90682,-0.462828 7.297942,-2 0.995486,-1.1 2.345486,-2 3,-2 0.654514,0 2.004514,0.9 3,2 2.140754,2.365506 5.751965,2.606254 7.5,0.5 0.684689,-0.825 2.259689,-1.5 3.5,-1.5 1.240311,0 2.815311,0.675 3.5,1.5 1.931209,2.326964 9.871928,1.968945 12.57109,-0.566786 1.7696,-1.662454 2.92272,-1.931201 5.89429,-1.373731 2.03186,0.38118 3.93151,1.311234 4.22145,2.066786 0.761,1.983151 11.6482,1.879891 13.31317,-0.126269 1.6052,-1.934153 6.3948,-1.934153 8,0 1.39777,1.684209 13.46507,2.174555 14.44622,0.587012 0.31034,-0.502143 2.39001,-1.221446 4.62149,-1.598452 3.04205,-0.513951 4.49918,-0.285507 5.8235,0.912988 2.30246,2.083695 10.4065,2.149586 12.10879,0.09845 1.60099,-1.929074 5.39901,-1.929074 7,0 1.60652,1.935738 8.86649,1.915557 11.44113,-0.0318 2.48344,-1.87838 4.0291,-1.855107 5.97416,0.08995 1.04408,1.044082 2.95566,1.456483 5.79405,1.25 L 202.44525,25.5 202.47262,15.105474 202.5,4.7109472 206,2.896598 c 4.02487,-2.08643606 9.74194,-1.3451036 13.10616,1.6994776 1.79077,1.6206257 1.90145,2.6229102 1.28231,11.6123934 l -0.67763,9.838675 12.39458,-0.652017 c 11.91484,-0.626781 12.47068,-0.567022 14.36066,1.543937 1.46289,1.63393 1.97477,3.674273 2,7.972051 C 248.5182,43.786154 248.13966,44 232.37756,44 H 219 v 4.333333 c 0,2.383334 0.24853,4.581867 0.5523,4.885629 0.46255,0.462555 0.54799,127.944858 0.095,141.781038 l -0.14732,4.5 11.5,0.24594 c 14.18349,0.30334 15.36681,0.56893 16.82856,3.77714 2.25835,4.95654 0.78202,15.24683 -2.23908,15.6067 -0.59921,0.0714 -6.3222,0.0257 -12.71774,-0.10149 -6.39554,-0.1272 -11.86004,0.1519 -12.14333,0.62022 -0.28329,0.46832 -0.10649,5.25628 0.39288,10.6399 1.0467,11.2841 0.4642,13.15118 -4.78754,15.3455 -4.06595,1.69886 -8.8948,0.61359 -11.86293,-2.66615 -1.55222,-1.71518 -1.69896,-3.32277 -1.18779,-13.0123 l 0.58321,-11.05534 -5.18312,0.29994 -5.1831,0.29994 0.26748,4.5 c 0.14711,2.475 1.17321,9.04026 2.28022,14.58946 1.10701,5.5492 1.74299,10.79241 1.4133,11.65157 -0.86264,2.248 -8.21933,2.77524 -10.69963,0.76683 -1.88333,-1.52503 -1.89411,-1.85548 -0.3521,-10.79098 1.7381,-10.07174 2.02674,-17.98111 0.73077,-20.02453 -0.55959,-0.88233 -2.58744,-1.20758 -6.23469,-1 -4.93163,0.28069 -5.43107,0.52785 -5.69886,2.82025 -0.16144,1.38193 0.80303,8.13193 2.14325,15 3.05149,15.63761 2.15757,18.09975 -5.68063,15.64643 -4.30077,-1.34612 -4.30325,-1.36396 -2.47406,-17.81425 0.99415,-8.94059 0.96214,-11.18254 -0.19037,-13.33603 -1.31491,-2.45693 -1.7426,-2.57393 -8.40341,-2.29872 l -7.01799,0.28997 -0.81523,3.93874 c -0.5652,2.73078 -0.17413,7.73503 1.27515,16.31707 2.6285,15.56487 2.39996,16.03091 -7.0432,14.36255 z m 5.92488,-3.86836 c -0.15788,-5.77988 -2.46683,-18.63049 -3.35794,-18.68887 -0.51319,-0.0336 -1.49478,3.27259 -2.18132,7.34714 -0.68653,4.07454 -1.51273,8.46204 -1.83599,9.75 -0.42312,1.68586 -0.16228,2.34173 0.93132,2.34173 1.15619,0 1.51905,-1.19435 1.51905,-5 0,-2.75 0.45,-5 1,-5 0.55,0 1,2.4 1,5.33333 0,2.93334 0.3,5.63334 0.66667,6 1.40817,1.40817 2.33035,0.55741 2.25821,-2.08333 z m -26.90957,-6.55902 c 0.0107,-5.012 0.30905,-6.73646 0.98469,-5.69098 0.53316,0.825 0.97627,4.3125 0.98469,7.75 0.0142,5.8119 1.31379,8.24171 2.60639,4.87325 0.80023,-2.08537 -1.94587,-19.682 -3.09108,-19.80725 -0.55,-0.0601 -2.04474,4.29766 -3.32164,9.68402 -1.83724,7.75002 -2.05585,9.95766 -1.04775,10.5807 2.28461,1.41197 2.86915,-0.0854 2.8847,-7.38974 z m -16.94502,1 c 0.0517,-3.82249 0.29685,-4.66372 0.92971,-3.19098 0.47269,1.1 0.89106,3.6875 0.92971,5.75 0.0388,2.06946 0.57445,3.75 1.19529,3.75 0.69195,0 0.91645,-1.05857 0.58321,-2.75 -0.29799,-1.5125 -1.08101,-6.4625 -1.74004,-11 -0.65904,-4.5375 -1.59648,-8.25 -2.08321,-8.25 -0.48673,0 -0.88667,0.3375 -0.88877,0.75 -0.002,0.4125 -0.65752,4.77747 -1.45651,9.69993 -1.03833,6.39694 -1.14755,9.31763 -0.38289,10.23899 1.81379,2.18549 2.84007,0.42497 2.9135,-4.99794 z m 67.62915,1.55902 c -0.92008,-7.54639 -2.7906,-15.25 -3.70285,-15.25 -1.0016,0 -1.65491,3.18172 -2.51532,12.25 -0.43272,4.56059 -0.29028,6.75 0.43914,6.75 0.65283,0 1.07959,-2.37176 1.07959,-6 0,-3.33333 0.44444,-6 1,-6 0.5641,0 1,2.83333 1,6.5 0,5.35658 0.28837,6.5 1.63929,6.5 1.37026,0 1.54425,-0.77954 1.06015,-4.75 z M 86.121976,243.63058 C 86.998018,235.59116 88,235.43257 88,243.33333 88,248.59259 88.316667,250 89.5,250 c 1.791982,0 1.893721,-2.41984 0.444248,-10.56634 -2.171215,-12.20291 -3.080605,-12.4057 -5.308177,-1.18366 -1.966459,9.9066 -2.038398,12.04995 -0.386071,11.50256 0.698023,-0.23124 1.524653,-2.9346 1.871976,-6.12198 z M 191,244.5 c 0,-3.025 0.45,-5.5 1,-5.5 0.55,0 1,2.22344 1,4.94098 0,2.71754 0.45,5.2191 1,5.55902 1.29036,0.79749 1.2715,-2.60674 -0.0557,-10.06634 -2.16535,-12.16995 -3.13374,-12.07166 -5.32236,0.54018 C 187.08456,248.8327 187.19366,250 189.55902,250 190.639,250 191,248.62211 191,244.5 Z M 69.131373,242.19098 69.262746,237.5 l 1.00927,5.25 c 0.627403,3.26361 1.523596,5.25 2.368627,5.25 1.635824,0 1.691813,-1.76417 0.303605,-9.56634 C 71.585853,230.79905 71.041704,229 70.0909,229 c -1.691066,0 -4.899224,15.88309 -3.624699,17.94531 1.29724,2.09898 2.535083,-0.10918 2.665172,-4.75433 z M 45,239.5 c 0,-2.475 0.45,-4.5 1,-4.5 0.55,0 1,1.575 1,3.5 0,1.94979 0.504082,3.5 1.138095,3.5 0.806221,0 0.937821,-1.96833 0.451298,-6.75 -1.083661,-10.65047 -1.371661,-11.33739 -4.445875,-10.60407 -3.951754,0.94265 -4.135249,1.16593 -4.243198,5.16309 -0.08704,3.22292 -0.191346,3.37395 -0.822521,1.19098 -0.580637,-2.00818 -0.834745,-1.41799 -1.291664,3 -0.600463,5.80592 0.133626,7.61134 3.679147,9.04848 C 44.796473,244.39874 45,244.19442 45,239.5 Z m 172.39892,3.19757 c 1.4587,-1.06663 1.71961,-2.46418 1.44113,-7.71939 -0.33484,-6.31865 -0.40134,-6.45165 -4.34005,-8.68112 -2.2,-1.24529 -4.27936,-2.27156 -4.62079,-2.28061 -1.28422,-0.034 -1.9449,13.49903 -0.81693,16.73355 0.90278,2.58876 1.68495,3.25 3.84442,3.25 1.49107,0 3.51257,-0.58609 4.49222,-1.30243 z M 212.15789,229 c 0,-1.375 0.22698,-1.9375 0.50439,-1.25 0.27741,0.6875 0.27741,1.8125 0,2.5 -0.27741,0.6875 -0.50439,0.125 -0.50439,-1.25 z M 87.662281,224.75 c -0.277413,-0.6875 -0.504386,-0.125 -0.504386,1.25 0,1.375 0.226973,1.9375 0.504386,1.25 0.277412,-0.6875 0.277412,-1.8125 0,-2.5 z m 40.027049,-1.5 c -0.25153,-0.9625 -0.45733,-0.175 -0.45733,1.75 0,1.925 0.2058,2.7125 0.45733,1.75 0.25152,-0.9625 0.25152,-2.5375 0,-3.5 z m 22.00366,1.01903 c -0.25354,-0.97297 -0.47766,-0.41903 -0.49804,1.23097 -0.0204,1.65 0.18706,2.44606 0.46099,1.76903 0.27392,-0.67703 0.29059,-2.02703 0.0371,-3 z m 23,0 c -0.25354,-0.97297 -0.47766,-0.41903 -0.49804,1.23097 -0.0204,1.65 0.18706,2.44606 0.46099,1.76903 0.27392,-0.67703 0.29059,-2.02703 0.0371,-3 z M 70.662281,223.75 c -0.277413,-0.6875 -0.504386,-0.125 -0.504386,1.25 0,1.375 0.226973,1.9375 0.504386,1.25 0.277412,-0.6875 0.277412,-1.8125 0,-2.5 z m 39.322409,0 C 109.97307,221.28378 109.7356,220.86174 109,222 c -1.2702,1.96549 -1.2702,5 0,5 0.55,0 0.99311,-1.4625 0.98469,-3.25 z m -21.944823,-4.86023 c -0.624219,-3.24197 -0.648093,-14.94039 -0.03528,-17.28603 0.576775,-2.20768 -0.855565,-2.98146 -3.004589,-1.62312 -1.929095,1.21932 -2.036055,16.39389 -0.139776,19.83015 1.603599,2.90588 3.794305,2.27133 3.179643,-0.921 z M 71.339334,209.8385 c -0.100801,-5.68617 -0.454638,-10.25975 -0.786304,-10.1635 -0.331667,0.0962 -1.15428,0.35939 -1.82803,0.58476 -1.785606,0.59729 -1.667396,16.90169 0.138307,19.07635 0.749819,0.90303 1.654906,1.46165 2.011304,1.24138 0.356399,-0.22026 0.565524,-5.05281 0.464723,-10.73899 z M 107.625,216.875 c -0.34375,-1.71875 -0.625,-6.21875 -0.625,-10 0,-5.34926 -0.32283,-6.875 -1.45469,-6.875 -1.92499,0 -2.95408,5.75048 -2.24996,12.57268 0.63746,6.17641 1.20818,7.42732 3.38867,7.42732 1.22056,0 1.42812,-0.68929 0.94098,-3.125 z m 20.875,-6.95833 c 0,-8.93143 -0.11301,-9.43275 -2.19304,-9.72876 -1.81522,-0.25832 -2.30994,0.31103 -2.87156,3.30477 -0.80936,4.31425 0.25252,13.42636 1.77898,15.26563 2.39514,2.88597 3.28562,0.48967 3.28562,-8.84164 z m 23.77663,5.57804 c 1.1416,-5.27843 0.38491,-14.46782 -1.27585,-15.49423 -1.86703,-1.15389 -4.22283,-0.0215 -3.55825,1.71035 0.30661,0.79901 0.55747,5.27394 0.55747,9.94428 0,7.46612 0.20605,8.45186 1.70634,8.16293 1.07465,-0.20696 2.02617,-1.80744 2.57029,-4.32333 z m 21.74812,1.94019 c 2.13271,-5.60946 0.55767,-19.12904 -2.12439,-18.23502 -1.65901,0.553 -1.78128,20.80131 -0.12561,20.80064 0.70111,-2.9e-4 1.71361,-1.15481 2.25,-2.56562 z m 18.23868,-2.76498 c 1.03096,-6.14942 -0.28883,-14.05113 -2.41529,-14.46065 -1.39932,-0.26948 -1.48755,0.31499 -0.67786,4.49046 0.51196,2.64015 0.64441,7.21316 0.29433,10.16225 -0.8237,6.93892 1.63154,6.77043 2.79882,-0.19206 z M 121,208.5 V 203 h -6 c -5.33333,0 -6,0.22222 -6,2 0,1.61456 0.7227,2.0324 3.75,2.1681 l 3.75,0.16811 -3.75,0.39226 c -3.39393,0.35501 -3.75,0.67139 -3.75,3.3319 0,2.92622 0.0274,2.93963 6,2.93963 h 6 z m 25,0 V 203 h -7.5 -7.5 v 5.5 5.5 h 7.5 7.5 z m 18.36043,4.86408 L 169,212.72815 V 207.86408 203 h -7 -7 v 5.5 c 0,6.18053 -0.051,6.15405 9.36043,4.86408 z M 158,207 c 0,-0.55 2.1375,-0.94676 4.75,-0.88169 4.23995,0.10562 4.42786,0.20029 1.75,0.88169 -4.42324,1.12552 -6.5,1.12552 -6.5,0 z m 28.80226,1.25 0.30226,-5.25 H 182.05226 177 v 5.55479 5.55479 l 4.75,-0.30479 L 186.5,213.5 Z M 179.25,206.31067 c 0.9625,-0.25152 2.5375,-0.25152 3.5,0 0.9625,0.25153 0.175,0.45733 -1.75,0.45733 -1.925,0 -2.7125,-0.2058 -1.75,-0.45733 z m 54.99753,5.79464 c 6.46115,-0.42187 12.01647,-1.03598 12.34516,-1.36467 1.09448,-1.09448 -0.73041,-6.74611 -2.42397,-7.50701 -0.9178,-0.41235 -12.35622,-0.60368 -25.41872,-0.42519 L 195,203.13299 v 5.26091 5.26091 l 13.75,-0.39123 c 7.5625,-0.21517 19.03639,-0.7364 25.49753,-1.15827 z M 229.5,208 c -1.31311,-0.56426 0.9193,-0.84058 6.5,-0.80455 7.43216,0.048 7.93467,0.15548 4,0.85559 -5.75981,1.02488 -8.02179,1.01388 -10.5,-0.051 z M 202,206 c 1.97089,-1.27369 6,-1.27369 6,0 0,0.55 -1.6875,0.99311 -3.75,0.98469 C 201.46062,206.9733 200.88425,206.72105 202,206 Z M 45.75,212.00599 65,212 v -4 c 0,-3.33333 -0.333333,-4 -2,-4 -1.1,0 -2,0.45 -2,1 0,0.55 -1.6875,0.97148 -3.75,0.93661 -3.254301,-0.055 -3.452581,-0.18293 -1.5,-0.96777 1.2375,-0.49742 2.245899,-1.03139 2.240886,-1.18662 -0.005,-0.15522 -6.867512,-0.38585 -15.25,-0.51251 -8.382487,-0.12666 -18.738073,-0.49593 -23.012413,-0.8206 l -7.771528,-0.59031 -1.522563,3.644 c -0.8374091,2.00421 -1.2274584,4.5738 -0.8667759,5.71021 0.6149049,1.93739 1.1631229,2.0267 8.7940899,1.43259 C 22.837763,212.29711 35.1625,212.00929 45.75,212.00599 Z M 24,206 c 0,-0.5675 2.703143,-0.9696 6.25,-0.92971 4.417853,0.0497 5.663713,0.32222 4.25,0.92971 -2.806582,1.20603 -10.5,1.20603 -10.5,0 z m 77,2 v -5 H 95.606989 C 89.798048,203 89,203.71448 89,208.91512 89,212.66933 89.539672,213 95.666667,213 H 101 Z m -7,-1 c 1.956534,-1.26441 4,-1.26441 4,0 0,0.55 -1.2375,0.99311 -2.75,0.98469 C 93.107063,207.97275 92.831125,207.75538 94,207 Z m -13,2.5 c 0,-2.19234 -0.461494,-2.52069 -3.75,-2.6681 l -3.75,-0.16811 3.81198,-0.39595 c 4.428797,-0.46003 4.582568,-2.88912 0.16185,-2.55672 -3.263234,0.24538 -4.437162,1.70376 -4.458517,5.53888 -0.01417,2.54422 0.284005,2.75 3.984687,2.75 3.6,0 4,-0.25 4,-2.5 z m -30,-9.46482 c 0,-1.41438 -3.179021,-2.88027 -7.874756,-3.63114 C 39.170795,195.77169 39,195.85318 39,198.37219 39,200.91729 39.188848,201 45,201 c 3.3,0 6,-0.43417 6,-0.96482 z M 65.810365,196.75 66.120731,193 h -5.560366 c -3.058201,0 -5.897865,-0.014 -6.310365,-0.0311 -0.967137,-0.0401 -1.569227,4.75682 -0.83667,6.66583 0.423946,1.10478 1.981616,1.39184 6.324574,1.16552 L 65.5,200.5 Z M 82.5,196.5 v -4 l -4.25,-0.10535 c -2.439017,-0.0605 -4.299152,0.36566 -4.36535,1 -0.06344,0.60794 -0.187373,1.78035 -0.275402,2.60535 -0.369935,3.467 1.421852,5.12123 5.206156,4.80647 C 82.396355,200.50862 82.5,200.38748 82.5,196.5 Z m 19.89301,2.91821 c 0.33385,-0.86998 0.60699,-2.66998 0.60699,-4 0,-2.13606 -0.46671,-2.43117 -4,-2.52932 -2.2,-0.0611 -5.008745,-0.16111 -6.241654,-0.22222 -2.484562,-0.12315 -3.313967,1.98342 -2.32785,5.91242 C 90.979022,200.7646 91.56065,201 96.412063,201 c 3.977857,0 5.531647,-0.41093 5.980947,-1.58179 z m 20.4111,-2.56321 c 0.3028,-3.62935 0.28561,-3.64653 -4,-4 -7.5642,-0.62389 -8.80411,-0.12423 -8.80411,3.54788 0,1.79508 0.31963,3.58342 0.7103,3.97408 0.39066,0.39067 3.20316,0.57817 6.25,0.41667 L 122.5,200.5 Z m 22.76539,1.72409 c 0.89931,-3.5831 0.13279,-6.09011 -1.8332,-5.99576 -0.95496,0.0458 -4.15505,0.15834 -7.1113,0.25 -5.16353,0.16011 -5.39941,0.28874 -5.99554,3.26938 -0.3413,1.70648 -0.37099,3.50648 -0.066,4 0.305,0.49351 3.66942,0.89729 7.47648,0.89729 6.4891,0 6.95993,-0.15138 7.52954,-2.42091 z M 167.5,196.5 v -4 l -6.75,-0.29569 -6.75,-0.29569 v 4.59138 4.59138 l 6.75,-0.29569 6.75,-0.29569 z m 18.3038,0.36017 c 0.29666,-3.5544 0.2136,-3.64844 -3.53859,-4.00627 -5.51934,-0.52635 -7.26521,0.0228 -7.26521,2.28517 0,4.31751 1.86292,5.98896 6.31427,5.66529 4.02683,-0.29281 4.19726,-0.44253 4.48953,-3.94419 z m 18.01904,0.26267 c 0.43164,-4.51528 -0.57768,-5.25525 -6.13012,-4.4942 -4.03164,0.5526 -4.69272,0.96472 -4.69272,2.9255 0,4.71252 0.95433,5.56444 5.87604,5.2455 4.45233,-0.28852 4.63594,-0.42499 4.9468,-3.6768 z M 217,198.5 c 0,-2.17908 -0.43879,-2.5 -3.41821,-2.5 -4.40522,0 -6.58179,0.86212 -6.58179,2.60699 0,2.13843 4.97359,1.79138 5.116,-0.35699 0.10528,-1.58826 0.15718,-1.59394 0.56148,-0.0615 0.24502,0.92868 1.20532,1.88898 2.134,2.134 0.92869,0.24501 1.80102,0.49768 1.93852,0.56148 0.1375,0.0638 0.25,-1.009 0.25,-2.384 z m -109,-3 c 0,-1.55556 -0.56667,-2.5 -1.5,-2.5 -2.79411,0 -1.78778,3.96175 1.25,4.92105 0.1375,0.0434 0.25,-1.04605 0.25,-2.42105 z m 21,0 c 0,-1.83333 -0.53333,-2.5 -2,-2.5 -1.46667,0 -2,0.66667 -2,2.5 0,1.83333 0.53333,2.5 2,2.5 1.46667,0 2,-0.66667 2,-2.5 z M 88,195 c 0,-1.11111 -0.666667,-2 -1.5,-2 -0.833333,0 -1.5,0.88889 -1.5,2 0,1.11111 0.666667,2 1.5,2 0.833333,0 1.5,-0.88889 1.5,-2 z m 63,0 c 0,-1.11111 -0.66667,-2 -1.5,-2 -0.83333,0 -1.5,0.88889 -1.5,2 0,1.11111 0.66667,2 1.5,2 0.83333,0 1.5,-0.88889 1.5,-2 z m 22,0 c 0,-1.11111 -0.66667,-2 -1.5,-2 -0.83333,0 -1.5,0.88889 -1.5,2 0,1.11111 0.66667,2 1.5,2 0.83333,0 1.5,-0.88889 1.5,-2 z m 45.83008,-8.39149 c 0.18764,-1.64377 -0.24388,-3.25321 -1,-3.72973 -0.73155,-0.46103 -39.35508,-0.87694 -85.83008,-0.92425 -46.475,-0.0473 -86.75,-0.16892 -89.5,-0.27027 -4.798883,-0.17685 -5.013055,-0.0702 -5.324574,2.65021 -0.698914,6.10356 -7.485166,5.69951 91.045234,5.42085 L 218.5,189.5 Z m -109.56105,-1.3015 c 0.97297,-0.25354 2.32297,-0.23687 3,0.0371 0.67703,0.27393 -0.11903,0.48137 -1.76903,0.46099 -1.65,-0.0204 -2.20394,-0.2445 -1.23097,-0.49804 z M 53,177.61663 c 0,-2.81217 -2.086058,-3.58304 -9.75,-3.60298 -4.908533,-0.0128 -5.25,0.14571 -5.25,2.43645 0,2.27422 0.412743,2.47599 5.75,2.81091 3.1625,0.19845 6.5375,0.44591 7.5,0.54991 1.230053,0.1329 1.75,-0.51905 1.75,-2.19429 z m 14.565983,1.27661 c 0.487369,-0.78858 0.902321,-0.75354 1.443363,0.12188 0.41764,0.67576 1.160883,1.0613 1.651652,0.85676 0.490768,-0.20453 -0.733141,-1.8197 -2.719799,-3.58926 l -3.612104,-3.21737 -3.360714,3.46737 L 57.607666,180 h 4.63715 c 2.550433,0 4.944958,-0.49804 5.321167,-1.10676 z M 89.886632,178.25 c -4.542026,-5.85202 -32.386119,-34.25125 -33.291012,-33.95475 -0.602591,0.19744 -1.238835,1.57034 -1.413876,3.05088 -0.235495,1.99187 0.742829,3.89734 3.762114,7.32743 2.244204,2.54955 3.822961,4.89295 3.508349,5.20757 -0.314611,0.31461 -2.103167,-1.21744 -3.974567,-3.40456 L 55.075093,152.5 l -0.03755,3.74969 c -0.03421,3.41688 0.832849,4.6373 9.76892,13.75 L 74.612934,180 h 8.315978 c 7.770743,0 8.226924,-0.11474 6.95772,-1.75 z m 10.021708,0.13956 c -0.675822,-0.81432 -1.808754,-1.25802 -2.517626,-0.986 -0.738759,0.28349 -1.08461,-0.0377 -0.810313,-0.75248 0.2632,-0.68589 -0.592177,-2.25297 -1.900837,-3.48239 -2.134785,-2.00552 -2.513283,-2.07397 -3.681925,-0.66585 -1.101446,1.32717 -0.886482,2.00374 1.392359,4.38234 1.722885,1.79831 3.786379,2.84391 5.721006,2.89891 2.562846,0.0729 2.837996,-0.14061 1.797336,-1.39453 z m 5.89497,-10.29515 C 102.99117,165.01748 100.37562,162.5 99.990968,162.5 c -0.384651,0 -1.956259,1.49373 -3.492462,3.31941 l -2.793097,3.3194 5.356559,5.42394 5.356562,5.42393 3.24887,-3.14893 3.24888,-3.14894 z m 15.04082,9.57151 2.19275,-2.33408 -2.47069,-2.66592 C 119.20731,171.19966 117.69445,170 117.20429,170 c -0.49017,0 -2.78844,2.25 -5.10728,5 l -4.21606,5 h 5.38521 c 4.34918,0 5.80707,-0.44904 7.57797,-2.33408 z m 4.87016,0.61979 c -1.61905,-1.61904 -1.80953,-1.61904 -3.42858,0 C 120.66667,179.90476 120.7619,180 124,180 c 3.2381,0 3.33333,-0.0952 1.71429,-1.71429 z M 135,179.41353 c 0,-0.32256 -8.75223,-9.64533 -19.44939,-20.71728 -10.69716,-11.07194 -19.203723,-20.37053 -18.903465,-20.66353 0.300258,-0.29299 4.651275,3.96728 9.668915,9.46728 5.01765,5.5 14.1032,15.09307 20.19012,21.31792 l 11.06714,11.31792 4.46111,-0.31792 4.46111,-0.31792 -24.49777,-25.26902 C 108.524,140.33302 90.351626,121.05639 81.614724,111.39403 l -15.885277,-17.567922 -2.069272,2.069273 -2.069272,2.069272 9.704548,9.877597 C 76.632953,113.27493 81,118.11234 81,118.59206 c 0,0.47971 -4.633805,-3.74583 -10.297345,-9.39009 L 60.40531,98.939665 58.301886,101.21983 56.198462,103.5 75.144584,123 c 10.420368,10.725 27.100366,27.9375 37.066676,38.25 13.33898,13.80234 18.73645,18.75 20.45464,18.75 1.28376,0 2.3341,-0.26391 2.3341,-0.58647 z M 87.341415,131.05875 c -6.252097,-6.6274 -6.997915,-7.80803 -5.889758,-9.32352 1.754762,-2.39978 2.849085,-2.18966 1.322978,0.25403 -1.115842,1.78675 -0.536932,2.70009 5.686558,8.97163 3.810879,3.84031 6.728607,7.14073 6.483839,7.33427 -0.244767,0.19353 -3.666395,-3.06285 -7.603617,-7.23641 z m 69.971955,42.12932 c 6.71724,-6.76911 6.74697,-6.82349 4.72855,-8.65013 -1.99473,-1.80521 -2.13449,-1.74275 -7.78655,3.4798 -3.16546,2.9249 -6.40029,5.90345 -7.18853,6.619 -1.23748,1.12337 -1.18218,1.57833 0.40499,3.33213 1.01098,1.11712 2.11797,2.03113 2.45998,2.03113 0.342,0 3.66371,-3.06537 7.38156,-6.81193 z m 6.52694,2.47464 c 3.79176,-3.86352 4.08271,-4.4817 2.66364,-5.65943 -1.36953,-1.13661 -2.15925,-0.77354 -5.62768,2.58729 -5.65256,5.4772 -6.5965,7.40943 -3.61966,7.40943 1.42401,0 3.97876,-1.68305 6.5837,-4.33729 z m 8.22213,2.22063 c 0.90331,-1.68786 0.80722,-2.44225 -0.47434,-3.72381 -1.4762,-1.4762 -1.91057,-1.30373 -5.33096,2.11666 L 162.53333,180 h 4.19815 c 3.25183,0 4.4535,-0.47713 5.33096,-2.11666 z M 176.5,179 c -0.33992,-0.55 -1.26648,-1 -2.05902,-1 -0.79254,0 -1.44098,0.45 -1.44098,1 0,0.55 0.92656,1 2.05902,1 1.13246,0 1.7809,-0.45 1.44098,-1 z M 142.53575,126.03576 C 90.796585,74.289935 88.501486,72.141174 86.706154,73.765927 c -1.81986,1.646951 -1.799952,1.75664 0.710773,3.916275 C 88.837617,78.904228 90,80.234844 90,80.639125 90,81.043407 88.619159,80.052491 86.931465,78.437091 83.95227,75.585514 83.830289,75.55823 82.741867,77.5 c -0.616584,1.1 -1.09182,2.167862 -1.056081,2.373028 0.03574,0.205165 22.223374,22.817662 49.305854,50.250002 L 180.23251,180 h 8.13027 8.13028 z M 168.45295,160.75 164.5,156.5 l 4.25,3.95295 c 3.95246,3.6762 4.70953,4.54705 3.95295,4.54705 -0.16338,0 -2.07588,-1.9125 -4.25,-4.25 z m -10.50678,-10.5 -3.44617,-3.75 3.75,3.44617 c 3.49042,3.20761 4.20979,4.05383 3.44617,4.05383 -0.16711,0 -1.85461,-1.6875 -3.75,-3.75 z M 201,170.2619 v -9.73809 l -5.22301,5.22301 -5.22301,5.22301 4.43122,4.51509 C 197.42237,177.96821 199.77272,180 200.20821,180 200.64369,180 201,175.61786 201,170.2619 Z m 17,6.40548 v -3.33262 l -5.39615,0.73227 C 204.81985,175.12334 203,175.88137 203,178.06739 203,179.80575 203.75384,180 210.5,180 H 218 Z M 62.249624,170.73369 c -0.213301,-0.42147 -0.876255,-0.46444 -1.473231,-0.0955 -0.596975,0.36895 -0.806882,0.22015 -0.466459,-0.33067 0.340423,-0.55081 -0.715048,-2.27953 -2.345492,-3.8416 C 55.209224,163.82627 55,163.77234 55,165.7018 c 0,1.31501 0.602028,2.02507 1.642371,1.93709 0.903304,-0.0764 1.861684,0.48625 2.129732,1.25031 0.297359,0.8476 0.04693,1.11699 -0.642371,0.69098 C 57.4907,169.18524 57,169.50483 57,170.31598 c 0,0.78871 -0.271609,2.95277 -0.603576,4.80902 l -0.603576,3.375 3.422298,-3.5 c 1.882265,-1.925 3.24778,-3.84484 3.034478,-4.26631 z m 89.757436,-3.24081 6.44928,-6.50713 -4.07998,-4.07997 -4.07997,-4.07998 -2.3982,3.16011 c -1.319,1.73806 -4.08569,4.85758 -6.14819,6.93227 -2.0625,2.07468 -3.75,4.1547 -3.75,4.62226 0,1.26263 5.2021,6.45956 6.46598,6.45956 0.60049,0 3.99397,-2.92821 7.54108,-6.50712 z M 52.813358,169.25 53.126717,166 H 45.563358 38 v 2.93358 c 0,3.28528 1.705668,3.91448 10,3.68884 4.316451,-0.11743 4.512782,-0.25498 4.813358,-3.37242 z m 164.271712,2.19742 C 217.58828,171.13642 218,169.42204 218,167.63768 v -3.24428 l -7.5,1.45212 c -6.60133,1.27813 -7.5,1.71388 -7.5,3.63664 0,1.20148 0.3375,2.53187 0.75,2.95642 0.78357,0.80647 11.74468,-0.008 13.33507,-0.99116 z m -121.601937,-8.02428 7.807597,-8.57686 -2.01726,-2.01725 -2.017257,-2.01726 -4.522751,4.84411 c -2.487513,2.66427 -5.45519,5.96912 -6.594837,7.34412 -1.139648,1.375 -2.087058,2.00258 -2.105356,1.39462 -0.0183,-0.60795 2.725644,-4.11624 6.09765,-7.79619 l 6.130918,-6.69081 -2.305232,-2.45381 C 94.688727,146.10421 93.140727,145 92.516606,145 c -0.624121,0 -4.400007,3.59866 -8.390859,7.99703 l -7.256093,7.99703 4.815173,5.49035 c 2.648345,3.0197 5.079669,5.49603 5.402942,5.50297 0.323272,0.007 4.101186,-3.84697 8.395364,-8.56424 z m 18.581047,5.99952 c 1.1271,-1.35806 0.53071,-2.32528 -4.29016,-6.95775 -5.01131,-4.81547 -5.73968,-5.21028 -6.93663,-3.76005 -1.04994,1.27211 -1.06872,1.71081 -0.0874,2.04109 0.6875,0.2314 1.25,0.92674 1.25,1.54522 0,1.20801 6.95965,8.70883 8.0805,8.70883 0.37104,0 1.26369,-0.7098 1.98368,-1.57734 z m 81.26337,-6.32817 C 199.87204,158.36329 201,156.53645 201,153.9074 v -3.28158 l -2.80472,2.68709 c -4.35246,4.16992 -5.06791,3.16507 -0.8338,-1.17105 3.29158,-3.37088 3.72767,-4.37006 3.45295,-7.91146 l -0.31443,-4.0533 -9.90123,10.48244 -9.90123,10.48244 2.20757,2.17901 2.20758,2.17901 3.01486,-3.34547 c 1.65817,-1.84 3.17973,-3.18058 3.38125,-2.97906 0.20152,0.20152 -0.95782,1.88309 -2.57632,3.73683 -2.27733,2.60834 -2.68776,3.67765 -1.81515,4.72907 0.62016,0.74725 1.44486,1.35863 1.83266,1.35863 0.38781,0 3.25771,-2.65748 6.37756,-5.90551 z M 52.25,163.32563 c 0.4125,-0.24402 0.75,-2.72872 0.75,-5.52156 v -5.07789 l -6.395613,0.51338 c -3.517586,0.28236 -6.892586,0.82052 -7.5,1.19593 C 38.496974,154.81089 38,157.08659 38,159.49259 c 0,3.99963 0.2357,4.41203 2.75,4.81165 2.808217,0.44634 10.14685,-0.17815 11.5,-0.97861 z m 92.21397,-7.14306 c 3.8432,-4.1403 4.62682,-5.50843 3.53983,-6.18022 -1.98624,-1.22756 -4.15527,0.20495 -9.41586,6.21859 -2.52337,2.88459 -4.58794,4.81549 -4.58794,4.29088 0,-0.5246 2.58061,-3.56165 5.73469,-6.74898 4.78623,-4.8367 5.5541,-6.08193 4.64282,-7.529 -1.96652,-3.12273 -3.79611,-2.37426 -10.34278,4.23111 l -6.45865,6.51659 3.86683,3.95999 c 4.48124,4.58921 4.27307,4.66529 13.02106,-4.75896 z m 68.48681,7.73457 c 4.72439,-1.0132 5.04922,-1.27895 5.04922,-4.13085 0,-2.96563 -0.10131,-3.03123 -3.75,-2.42814 -2.0625,0.34091 -5.4375,0.62479 -7.5,0.63084 -3.44839,0.0101 -3.75,0.23889 -3.75,2.84434 0,4.60166 1.17514,4.96584 9.95078,3.08381 z m -26.70364,-12.35676 6.74713,-7.19168 -2.90966,-2.78764 -2.90967,-2.78763 -7.33747,7.03088 -7.33747,7.03088 2.93709,3.0724 c 1.6154,1.68983 3.1904,3.01663 3.5,2.94845 0.3096,-0.0682 3.59912,-3.36023 7.31005,-7.31566 z m -108.440558,4.1455 c 2.118578,-2.25512 2.1226,-2.32203 0.236606,-3.93687 -1.367917,-1.17125 -2.057336,-1.3021 -2.401949,-0.45589 -0.265839,0.65279 -0.518871,0.39938 -0.562292,-0.56312 -0.104906,-2.32542 -1.241676,-2.20874 -3.434703,0.35252 -1.743716,2.03652 -1.729522,2.1778 0.452073,4.5 2.771492,2.95012 3.031454,2.95483 5.710265,0.10336 z m 139.990138,-5.29614 0.29672,-5.09026 -7.53947,0.0903 -7.53948,0.0903 -0.007,4.70031 c -0.009,5.78334 1.05596,6.49516 8.69931,5.81513 L 217.5,155.5 Z M 133.4575,148.75 l 6.68545,-6.25 -6.07754,-5.9747 -6.07755,-5.9747 -3.20713,3.20713 -3.20713,3.20713 3.37165,3.47866 c 1.85441,1.91326 3.75035,3.24461 4.2132,2.95855 2.36838,-1.46374 0.36278,2.00977 -2.87222,4.97443 -3.2134,2.94487 -3.53374,3.62034 -2.37756,5.01346 0.73492,0.88552 1.67983,1.61004 2.0998,1.61004 0.41997,0 3.77203,-2.8125 7.44903,-6.25 z m -80.65524,-2.5 0.302259,-5.25 h -6.57701 c -6.139857,0 -6.641833,0.17049 -7.55226,2.5651 C 38.438862,144.9759 38,147.47062 38,149.10891 v 2.97871 L 45.25,151.79381 52.5,151.5 Z m 18.266701,2.17659 2.41759,-2.5734 -4.90918,-4.63835 c -4.780915,-4.51715 -4.934964,-4.58055 -5.896089,-2.42659 C 62.138481,140.00471 61.313138,141 60.847186,141 60.381234,141 60,141.4487 60,141.99712 60,143.17084 66.906627,151 67.942048,151 c 0.390128,0 1.797239,-1.15803 3.126913,-2.57341 z m 12.977709,1.01718 c 1.106334,-1.33305 0.236974,-2.61791 -6.06199,-8.95919 -7.117802,-7.16563 -7.39975,-7.337 -8.794702,-5.34542 -1.347314,1.92356 -0.995198,2.50693 5.407614,8.95919 3.766823,3.79591 7.143238,6.90165 7.503144,6.90165 0.359906,0 1.235576,-0.70031 1.945934,-1.55623 z m 98.25094,-9.24075 10.7635,-10.79698 -2.48259,-2.33227 -2.48259,-2.33228 -3.29797,2.7501 c -1.81388,1.51255 -6.9509,6.253 -11.4156,10.53434 l -8.11764,7.78424 2.59491,2.59492 c 1.4272,1.4272 2.83782,2.59491 3.1347,2.59491 0.29688,0 5.38335,-4.85864 11.30328,-10.79698 z m -57.47715,7.48809 2.1691,-2.3089 -3.47281,-3.36598 c -3.39354,-3.28915 -3.51896,-3.32421 -5.49478,-1.53611 -2.54271,2.30112 -2.5271,2.91764 0.16609,6.56037 2.63516,3.56425 3.78887,3.67742 6.6324,0.65062 z m -35.476942,-3.5182 c 1.549475,-1.71215 1.496975,-1.97413 -0.834534,-4.16447 -2.422153,-2.27549 -2.541669,-2.28884 -4.514023,-0.50388 l -2.025996,1.8335 2.189831,2.33097 c 2.638077,2.80811 3.062131,2.84932 5.184722,0.50388 z M 216.75,143.44801 c 0.85746,-0.26426 1.25,-2.78695 1.25,-8.03312 v -7.64788 l -6.75,0.71826 c -3.7125,0.39505 -7.0875,0.92403 -7.5,1.17552 -0.4125,0.25148 -0.75,3.54939 -0.75,7.32868 0,6.33552 0.17548,6.904 2.25,7.28904 2.22154,0.41233 9.07279,-0.0825 11.5,-0.8305 z m -49.75984,-1.93753 c 2.27893,-2.42582 2.29174,-2.5415 0.50061,-4.52068 l -1.83817,-2.03115 -2.81863,2.70041 c -2.64159,2.53081 -2.71516,2.81474 -1.17131,4.52068 2.13174,2.35555 2.53322,2.30511 5.3275,-0.66926 z m 32.00487,-3.43479 c -0.003,-0.31663 -1.04815,-1.87938 -2.32314,-3.47277 l -2.31818,-2.89709 -2.65589,2.86425 -2.65588,2.86426 2.66539,2.78207 2.66539,2.78206 2.31364,-2.17355 c 1.2725,-1.19545 2.3114,-2.43261 2.30867,-2.74923 z M 126,128.43388 c 0,-0.61815 -0.9496,-1.98115 -2.11023,-3.02889 -2.09618,-1.8923 -2.13353,-1.87834 -5.60762,2.09501 -1.92357,2.2 -4.63484,5.47229 -6.02506,7.27177 -2.45689,3.18014 -2.47664,3.32815 -0.70519,5.28558 1.80634,1.99598 1.87839,1.9584 8.13529,-4.24288 C 123.15924,132.37329 126,129.05202 126,128.43388 Z m -56.774054,-1.76381 3.068731,-3.82994 -2.643028,-2.64303 -2.643028,-2.64302 -6.00431,5.94165 L 55,129.43739 v 5.99715 5.99714 l 5.578607,-5.46584 c 3.068234,-3.00621 6.959537,-7.18931 8.647339,-9.29577 z M 49.75,138.01096 c 2.509765,-1.53023 3.25,-2.6682 3.25,-4.99626 0,-2.73679 -0.299601,-3.01369 -3.25,-3.00369 -1.7875,0.006 -4.9375,0.28993 -7,0.63084 -3.666563,0.60604 -3.75,0.71705 -3.75,4.98899 V 140 l 3.75,-0.004 c 2.0625,-0.002 5.2125,-0.89544 7,-1.9853 z M 53,139 c 0,-0.55 -0.198442,-1 -0.440983,-1 -0.242541,0 -0.719098,0.45 -1.059017,1 -0.339919,0.55 -0.141476,1 0.440983,1 C 52.523442,140 53,139.55 53,139 Z m 25.975835,-8.52447 c -4.935978,-4.99806 -5.583265,-5.36531 -6.719011,-3.81208 -1.794098,2.45357 -1.742149,2.58044 3.39718,8.29662 l 4.654003,5.17637 2.065008,-2.06501 2.065007,-2.06501 z m 90.990525,-2.40564 c 10.0593,-9.51291 11.30208,-11.04151 10.12756,-12.45672 C 179.35757,114.72592 178.18611,114 177.49067,114 c -0.69544,0 -5.59034,4.09402 -10.87755,9.09783 C 161.3259,128.10164 157,131.9185 157,131.57976 c 0,-0.33875 4.3875,-4.85108 9.75,-10.02739 8.41717,-8.12493 9.5984,-9.66034 8.64101,-11.23193 -0.60994,-1.00124 -1.59613,-1.82044 -2.19153,-1.82044 -0.5954,0 -6.05024,4.89528 -12.12187,10.8784 l -11.03932,10.8784 2.23086,2.64855 c 3.93012,4.66599 5.21928,6.0187 5.73085,6.01334 0.275,-0.003 5.65986,-4.88484 11.96636,-10.8488 z m -54.17109,0.31718 c 5.13954,-6.08265 5.1551,-6.12201 3.13991,-7.94573 -1.99026,-1.80116 -2.14018,-1.71782 -8.68669,4.82868 l -6.66147,6.66148 2.40017,2.55486 c 1.90009,2.02256 2.6338,2.29013 3.52156,1.28425 0.61677,-0.69884 3.44571,-4.02143 6.28652,-7.38354 z m 60.70094,-0.31943 c -1.35368,-1.35368 -1.90588,-1.12463 -5.17847,2.14795 -3.16104,3.16104 -3.48042,3.88347 -2.32981,5.26987 1.19556,1.44056 1.73092,1.21849 5.17848,-2.14795 3.43504,-3.35424 3.68348,-3.91619 2.3298,-5.26987 z m 24.48198,2.18236 c -0.0203,-4.43113 -0.55738,-5.41357 -8,-14.63475 C 188.59019,110.17864 185,105.53958 185,105.30623 c 0,-1.1696 2.51356,1.53152 8.69529,9.34413 l 6.80471,8.59996 0.30993,-4.17489 c 0.2591,-3.49026 -0.21047,-4.78169 -2.86342,-7.87516 -5.9979,-6.99382 -24.44692,-27.034455 -24.96369,-27.11733 -0.28444,-0.04562 -2.88186,1.985634 -5.77204,4.513892 l -5.25487,4.596832 10.80341,11.653166 c 5.94187,6.40924 14.56487,15.81567 19.16222,20.90317 4.59734,5.0875 8.52073,9.25 8.71863,9.25 0.19791,0 0.35002,-2.1375 0.33802,-4.75 z M 178.168,97.954973 C 175.7854,95.229738 174.25246,93 174.76146,93 c 0.50901,0 2.82269,2.25 5.14153,5 5.46726,6.48385 3.93834,6.44417 -1.73499,-0.04503 z m -72.87407,29.260117 2.66811,-2.78491 -6.11791,-6.77858 -6.117913,-6.77857 -3.376721,3.27284 -3.376721,3.27285 6.234724,6.29064 C 98.636598,127.16921 101.70853,130 102.03402,130 c 0.32549,0 1.79245,-1.25321 3.25991,-2.78491 z m -53.615359,1.00473 c 0.764364,-0.48613 1.178572,-3.96727 1.178572,-9.90511 0,-10.31752 0.303821,-9.92573 -8.499492,-10.96039 l -5.472187,-0.64314 0.307268,5.39441 L 39.5,117.5 l 5.75,-0.2591 c 3.372421,-0.15197 5.75,0.15815 5.75,0.75 C 51,118.55758 48.369414,119 45,119 h -6 v 5 5 l 5.75,-0.0153 c 3.1625,-0.008 6.280357,-0.35262 6.928571,-0.76487 z m 111.580989,-18.4047 -2.20552,-2.20552 -7.77702,7.39532 c -4.27736,4.06743 -8.19856,7.74931 -8.71378,8.18196 -0.54818,0.46033 0.0564,1.84379 1.45752,3.33522 l 2.39427,2.54858 8.52503,-8.52502 8.52502,-8.52503 z m -99.004614,4.9141 c -1.533848,-1.69488 -1.805364,-1.59765 -5.434727,1.94633 C 55.75038,119.67317 55,121.13445 55,124.11501 v 3.70911 l 5.434727,-5.65545 c 5.079368,-5.28565 5.32916,-5.77209 3.820219,-7.43945 z m 118.932664,10.59104 c 2.63317,-2.52274 2.69944,-2.78759 1.13102,-4.52068 -1.60894,-1.77785 -1.76141,-1.74955 -4.4494,0.8257 -2.21085,2.11814 -2.57927,3.048 -1.79111,4.52068 1.3018,2.43244 1.79129,2.35333 5.10949,-0.8257 z m 34.05335,-0.16122 c 0.5846,-0.5846 0.71666,-2.57143 0.31369,-4.71942 l -0.69596,-3.70976 -6.01441,0.62863 c -3.30793,0.34574 -6.42614,0.88308 -6.92935,1.19409 -1.09854,0.67893 -1.22643,6.79351 -0.16493,7.88595 1.01691,1.04656 12.2282,-0.0167 13.49096,-1.27949 z M 112.92708,115.08696 C 109.83914,112.51641 109.8004,112.51911 107,115.5 l -2.34863,2.5 2.37598,2.52911 2.37597,2.52911 2.97542,-2.97543 2.97543,-2.97542 z m 31.94694,5.56483 c 0.85424,-1.02929 0.63929,-1.78226 -0.90868,-3.18316 -1.87569,-1.69747 -2.14994,-1.7126 -3.66057,-0.20198 -1.34779,1.3478 -1.40829,1.90369 -0.34642,3.18316 1.58345,1.90795 3.43665,1.98409 4.91567,0.20198 z M 108,111.51278 c 0,-0.62623 -1.35923,-2.44083 -3.02052,-4.03244 l -3.02052,-2.89384 -2.690958,2.69095 -2.690956,2.69096 3.402584,3.51057 3.40258,3.51058 2.3089,-2.1691 C 106.961,113.62746 108,112.139 108,111.51278 Z m 37.98392,-2.99661 8.43976,-8.48383 -3.40801,-3.516172 C 149.14127,94.582276 147.14284,93 146.57472,93 c -0.56812,0 -4.75037,3.698111 -9.29388,8.21803 l -8.26094,8.21802 3.693,3.78198 c 2.03115,2.08008 3.9491,3.78197 4.26213,3.78197 0.31302,0 4.36702,-3.81772 9.00889,-8.48383 z m 3.8901,7.13562 c 0.85047,-1.02475 0.67887,-1.74644 -0.71524,-3.00809 -1.7123,-1.54961 -1.94368,-1.53886 -3.48281,0.16186 -1.27175,1.40527 -1.37744,2.09297 -0.46232,3.00809 1.56167,1.56167 3.27948,1.50201 4.66037,-0.16186 z m 65.66251,-0.69171 c 1.70039,-0.62475 1.97121,-1.43307 1.64084,-4.89737 l -0.39568,-4.14911 -6.64085,0.2932 -6.64084,0.2932 -0.30083,5.20891 -0.30084,5.2089 5.30084,-0.60474 c 2.91545,-0.33261 6.21727,-0.94145 7.33736,-1.35299 z M 58.5,114 c 1.746633,-1.93001 1.746633,-2.06999 0,-4 -2.665889,-2.94577 -3.5,-2.46914 -3.5,2 0,4.46914 0.834111,4.94577 3.5,2 z m 35.84778,-4.92576 C 97.456501,105.81507 100,102.74926 100,102.26133 c 0,-0.48793 -1.357302,-2.18753 -3.016228,-3.776877 l -3.016227,-2.889729 -5.983773,5.921336 C 84.692698,104.77279 82,107.87686 82,108.41398 82,109.51966 87.02172,115 88.034871,115 c 0.363379,0 3.204188,-2.66659 6.312909,-5.92576 z m 61.48921,0.59395 c 2.04177,-2.10657 3.00482,-3.91684 2.61885,-4.92269 -1.10199,-2.87173 -3.16364,-2.64218 -6.41705,0.71448 -2.87242,2.96359 -3.06639,3.52296 -1.88026,5.42225 1.71607,2.74788 1.87039,2.71488 5.67846,-1.21404 z m 13.64932,-1.65307 c 1.74677,-1.93016 1.6779,-2.11623 -2.49829,-6.75 C 164.62601,98.644306 155.56894,89.1875 146.86122,80.25 131.59187,64.577726 130.88627,64 127.0145,64 124.80652,64 123,64.263885 123,64.586411 c 0,0.768826 43.31965,45.361759 44.09501,45.391089 0.32726,0.0124 1.40334,-0.87069 2.3913,-1.96238 z M 132.50093,91.000944 C 129.23485,87.700425 126.13426,85 125.61073,85 c -0.52354,0 -3.08943,2.3625 -5.70198,5.25 l -4.7501,5.25 6.07605,6.18367 6.07604,6.18367 5.56426,-5.43273 5.56426,-5.432722 z M 52.5,101.9863 V 97.5 H 46 39.5 l -0.307026,3.69399 c -0.297126,3.57487 -0.184266,3.71406 3.5,4.31659 2.093864,0.34243 4.482026,0.77013 5.307026,0.95045 3.736753,0.81672 4.5,0.0578 4.5,-4.47473 z m 38.491669,-9.439076 -2.009447,-2.009446 -6.186485,6.186485 c -6.133863,6.133867 -6.170472,6.204177 -4.30392,8.266697 l 1.882565,2.08021 6.313367,-6.25725 6.313366,-6.257249 z M 217,101.01905 c 0,-4.575333 -1.50402,-5.376163 -9.08021,-4.834844 -4.30313,0.307459 -4.42787,0.412877 -4.72587,3.993964 -0.33839,4.06639 0.22764,4.34313 9.55608,4.672 L 217,105 Z m -20.64689,1.14326 c 1.5572,-1.72068 1.53325,-1.95518 -0.37614,-3.683154 -1.85112,-1.675235 -2.18373,-1.700969 -3.60572,-0.278979 -1.24404,1.244039 -1.33331,2.002203 -0.43369,3.683163 1.38901,2.59538 2.26892,2.65097 4.41555,0.27897 z M 83.98025,73.572235 93.460499,64 82.98025,64.025173 72.5,64.050346 63.75,72.119099 55,80.187853 v 5.140442 5.140441 L 66.966105,78.533807 C 73.547463,71.969595 79.172254,66.838921 79.465642,67.132309 79.75903,67.425696 74.374282,73.180713 67.499537,79.921235 55.150024,92.029635 55,92.231 55,96.698358 v 4.521632 l 9.75,-9.037762 C 70.1125,87.211461 78.766112,78.836964 83.98025,73.572235 Z m -2.913268,22.205306 c 6.277024,-5.525265 6.880923,-6.74596 4.368778,-8.830856 C 84.094591,85.833614 82.999972,86.520028 77.76,91.76 c -5.239972,5.239972 -5.926386,6.334591 -4.813315,7.67576 0.714013,0.86033 1.498246,1.56424 1.742742,1.56424 0.244495,0 3.114395,-2.350106 6.377555,-5.222459 z M 193.29001,73.727452 C 185.37145,65.69985 182.19928,63.602563 179.527,64.628014 c -1.17383,0.450441 -1.25729,1.00742 -0.39296,2.622448 1.07714,2.012653 1.04162,2.010806 -1.92268,-0.09996 C 175.23754,65.74502 172.68947,65 169.85635,65 h -4.33492 l 17.48929,17.515187 17.48928,17.515183 0.29001,-9.202815 0.29001,-9.202818 z m -1.3486,8.567642 -5.44141,-5.655426 5.24696,4.270739 c 5.35952,4.362358 6.76819,5.907778 6.04458,6.631384 -0.2248,0.224801 -2.85736,-2.136213 -5.85013,-5.246697 z m -0.5883,11.542592 C 190.43841,92.826959 189.07065,92 188.31363,92 c -2.24434,0 -2.69213,2.92428 -0.7726,5.045341 1.67196,1.847489 1.89913,1.866295 3.62938,0.300441 1.72496,-1.561071 1.73692,-1.790698 0.1827,-3.508096 z m -138.543397,-2.07674 0.309712,-3.739054 -4.809712,0.55361 C 39.335493,89.608457 39,89.770235 39,93.064742 V 96.09138 L 45.75,95.79569 52.5,95.5 Z M 77.15952,89.729281 c 3.156613,-3.063388 3.77146,-4.158702 2.711408,-4.830214 -2.209893,-1.399901 -2.757857,-1.131394 -7.492774,3.67152 -3.667596,3.720264 -4.283273,4.838812 -3.309338,6.012331 1.351528,1.628492 1.508096,1.534567 8.090704,-4.853637 z m 65.3235,3.289477 c 2.05886,-2.27501 2.01758,-2.352473 -5.50112,-10.322759 l -4.53181,-4.804 -2.18913,2.330223 -2.18913,2.330223 5.54396,6.223777 C 136.66498,92.1993 139.50407,95 139.92489,95 c 0.42083,0 1.57198,-0.891559 2.55813,-1.981242 z M 217,91.625 c 0,-2.98 -0.36574,-3.448148 -3.125,-4 -1.71875,-0.34375 -4.86875,-0.625 -7,-0.625 -3.7483,0 -3.875,0.11237 -3.875,3.436642 0,3.721599 0.63137,3.992831 10.25,4.403321 3.6242,0.154668 3.75,0.04682 3.75,-3.214963 z M 129.41601,73.971565 c -1.20947,-1.209474 -2.63689,-1.767761 -3.48273,-1.362154 -0.78831,0.378016 -4.98924,4.430476 -9.33541,9.005466 l -7.90213,8.318163 2.40213,1.982082 2.40213,1.982083 8.98273,-8.938092 8.98274,-8.938092 z M 166.08,87.323892 c 2.65119,-2.57186 4.56705,-5.085967 4.25745,-5.586907 -0.3096,-0.500939 -2.08044,0.560051 -3.9352,2.357756 -1.85476,1.797704 -3.60386,3.036986 -3.88688,2.75396 -0.28303,-0.283027 1.30598,-1.977648 3.53113,-3.765825 3.03784,-2.441278 4.3701,-2.982018 5.34782,-2.170585 0.96424,0.800252 1.72673,0.611426 2.93866,-0.72774 1.53433,-1.695414 1.40325,-2.035867 -2.0982,-5.449704 L 168.5,71.093531 161.75,77.653187 C 158.0375,81.260998 155,84.70283 155,85.301703 155,86.348594 159.90778,92 160.81691,92 c 0.24351,0 2.61189,-2.104249 5.26309,-4.676108 z m 19.77387,3.352178 c 0.84579,-1.019108 0.0899,-2.285427 -3.28298,-5.5 -4.46057,-4.251199 -5.9803,-4.940689 -7.05547,-3.201022 C 174.91448,82.94739 182.58056,92 184.00492,92 c 0.4126,0 1.24463,-0.595768 1.84895,-1.32393 z M 47.75,87.352017 C 52.916794,86.731412 53,86.668155 53,83.360709 V 80 h -7 -7 v 4 c 0,4.459411 -0.112074,4.416477 8.75,3.352017 z m 68.97911,-7.579939 C 121.2781,75.246721 125,71.041465 125,70.427065 c 0,-0.614399 -0.91756,-1.947472 -2.03903,-2.962383 -2.0111,-1.820021 -2.16146,-1.723426 -10.97883,7.053093 l -8.9398,8.898387 2.15314,2.291919 C 106.37971,86.968636 107.59829,88 107.90343,88 c 0.30514,0 4.27669,-3.702565 8.82568,-8.227922 z M 217,81.5 V 77 h -7 -7 v 3.926676 c 0,4.465428 0.54836,4.776103 8.75,4.957323 L 217,86 Z m -61.5858,-0.794861 c 0.86856,-1.376962 -0.0944,-2.837629 -5.39967,-8.190481 C 146.46331,68.931596 143.31552,66 143.01944,66 c -0.29609,0 -1.13739,0.959226 -1.86956,2.131614 -1.2295,1.96874 -0.8484,2.618763 4.98774,8.507238 3.47542,3.506593 6.74657,6.233084 7.26922,6.058867 0.52265,-0.174216 1.42596,-1.070878 2.00736,-1.99258 z M 115.63127,66.518802 c -0.2097,-0.560341 -1.00002,-0.842673 -1.75627,-0.627405 -4.02376,1.145372 -15.093511,1.172144 -16.457898,0.0398 -1.224122,-1.015931 -2.020397,-0.72739 -4.470484,1.619942 l -2.98107,2.856047 5.739783,5.800306 5.739779,5.800306 7.28371,-7.235099 c 4.00604,-3.979304 7.11214,-7.69356 6.90245,-8.253901 z M 51.932094,77.541968 C 52.519442,77.178967 53,75.333524 53,73.440983 V 70 h -7.257206 -7.257206 l 0.368146,4.628829 0.368146,4.628829 5.821154,-0.527844 c 3.201634,-0.290314 6.301712,-0.824844 6.88906,-1.187846 z m 108.880486,-1.842469 2.16121,-2.3005 -4.83705,-4.764319 c -4.42139,-4.354903 -5.19559,-4.737265 -9.00924,-4.449499 L 144.95531,64.5 l 6.10194,6.75 c 3.35606,3.7125 6.43768,6.75 6.84803,6.75 0.41035,0 1.71864,-1.035225 2.9073,-2.300501 z M 61.999971,70.924314 c 3.2e-5,-0.628473 -3.893676,-4.293347 -5.499971,-5.176736 -0.602778,-0.3315 -1.124348,1.831041 -1.313044,5.44417 l -0.313044,5.994124 3.563015,-2.842936 c 1.959658,-1.563615 3.563027,-3.101995 3.563044,-3.418622 z m 138.502409,-3.763294 -0.6516,-3.473341 -3.13859,3.138589 -3.13859,3.138589 3.4632,3.586053 3.4632,3.586052 0.32699,-3.251301 c 0.17985,-1.788215 0.0338,-4.814304 -0.32461,-6.724641 z m 17.29588,6.251475 c 0.42853,-2.999312 -1.46784,-4.055254 -8.54826,-4.759862 L 203,68.030665 v 3.318001 c 0,1.8249 0.31843,3.636431 0.70762,4.025624 0.3892,0.389193 3.6517,0.576693 7.25,0.416667 5.76013,-0.256168 6.57804,-0.540553 6.84064,-2.378462 z M 164.859,67.349909 C 163.6448,66.057459 161.51654,65 160.12952,65 h -2.52185 l 3.37065,3.477633 c 2.62851,2.711938 3.66984,3.229334 4.72948,2.349909 1.12208,-0.931248 0.9742,-1.537131 -0.8488,-3.477633 z M 49.994749,68.106475 c 1.372112,-0.381791 2.642608,-1.461935 2.823324,-2.40032 C 53.104431,64.219214 52.173594,64 45.573324,64 40.025981,64 38,64.34777 38,65.3 c 0,3.353562 5.447712,4.628192 11.994749,2.806475 z M 140.5,66 c 1.78337,-1.970607 1.74663,-2 -2.5,-2 -4.24663,0 -4.28337,0.02939 -2.5,2 0.99549,1.1 2.12049,2 2.5,2 0.37951,0 1.50451,-0.9 2.5,-2 z m 53.01129,-0.01247 c 1.79512,-1.98359 1.76971,-2.008707 -1.77091,-1.75 -3.35162,0.244898 -3.48631,0.379666 -2.01129,2.012475 1.92752,2.133716 1.59265,2.156955 3.7822,-0.262475 z M 218,65.5 c 0,-2.446596 -0.16178,-2.5 -7.57332,-2.5 -6.67262,0 -7.53381,0.208131 -7.24103,1.75 0.26154,1.377352 1.71451,1.872953 6.82332,2.327401 3.57007,0.317571 6.82853,0.655071 7.24103,0.75 C 217.6625,67.92233 218,66.875 218,65.5 Z M 66.97104,66.03906 c 0.809071,-0.511673 1.210979,-1.190374 0.893128,-1.508226 C 67.076417,63.743083 64,64.997922 64,66.106989 c 0,1.139786 1.101177,1.114609 2.97104,-0.06793 z m 65.64354,-7.216143 C 132.2651,57.075521 131.8697,55.536365 131.7359,55.402571 131.60211,55.268776 110.50522,54.841438 84.853929,54.45293 L 38.215217,53.746551 37.540221,55.873275 C 37.168973,57.042974 37.150874,58.9 37.5,60 c 0.623053,1.963065 1.513034,2 48.192388,2 H 133.25 Z M 138.81336,58.75 c -0.26519,-2.750433 -0.75722,-3.300679 -3.20093,-3.579697 -2.34706,-0.267983 -2.76823,-0.01869 -2.25,1.331787 C 133.71309,57.415907 134,59.026771 134,60.081787 134,61.473857 134.7031,62 136.56336,62 c 2.2896,0 2.52989,-0.347082 2.25,-3.25 z M 216.25,60.41879 c 2.02428,-0.479898 2.75,-1.265348 2.75,-2.97635 0,-1.278423 -0.47796,-2.6198 -1.06213,-2.980838 -0.96454,-0.596122 -44.3117,-0.616361 -51.43787,-0.02402 -1.65,0.137152 -8.2875,0.319803 -14.75,0.405891 L 140,55 v 3.639366 3.639366 l 36.75,-0.603999 c 20.2125,-0.332199 37.9875,-0.897373 39.5,-1.255943 z M 66,48.7 C 66,44.42835 64.466851,43 59.881787,43 54.248149,43 53,43.80534 53,47.440322 c 0,1.77449 0.3,3.526345 0.666667,3.893011 C 54.033333,51.7 56.958333,52 60.166667,52 H 66 Z m 14.804291,0.17572 c 0.370812,-3.197971 -2.270166,-6.093921 -5.178937,-5.678937 -1.732521,0.247173 -2.182767,1.100578 -2.435978,4.617196 l -0.310624,4.31398 3.810624,-0.31398 c 3.271775,-0.26958 3.853653,-0.685071 4.114915,-2.938259 z M 100,49.934259 C 100,45.368502 98.262308,44 92.464816,44 H 87 v 4 4 h 6.5 c 5.902287,0 6.5,-0.189957 6.5,-2.065741 z m 6.82975,-0.772342 c 0.29382,-2.065042 0.10308,-2.196336 -1.75,-1.204601 -2.55259,1.366107 -2.80587,4.327727 -0.32975,3.855792 0.9625,-0.183446 1.89839,-1.376483 2.07975,-2.651191 z m 16.56095,0.417546 C 124.56815,44.888123 123.37469,44 115.89301,44 H 109 v 4 4 h 6.89159 c 6.45671,0 6.92993,-0.152743 7.49911,-2.420537 z M 129,50 c 0,-1.333333 -0.66667,-2 -2,-2 -1.33333,0 -2,0.666667 -2,2 0,1.333333 0.66667,2 2,2 1.33333,0 2,-0.666667 2,-2 z m 16.98469,-0.75 c -0.0263,-4.718863 -1.0849,-5.381092 -8.07575,-5.051843 L 131.5,44.5 131.18963,48.25 130.87927,52 H 138.43963 146 Z M 151,50 c 0,-1.111111 -0.66667,-2 -1.5,-2 -0.83333,0 -1.5,0.888889 -1.5,2 0,1.111111 0.66667,2 1.5,2 0.83333,0 1.5,-0.888889 1.5,-2 z m 2.66228,-1.25 c -0.27741,-0.6875 -0.50439,-0.125 -0.50439,1.25 0,1.375 0.22698,1.9375 0.50439,1.25 0.27741,-0.6875 0.27741,-1.8125 0,-2.5 z m 14.73073,1.668213 C 168.72686,49.548229 169,47.748229 169,46.418213 169,44.134164 168.67305,44 163.10699,44 156.83848,44 156,44.658536 156,49.581787 156,51.865836 156.32695,52 161.89301,52 c 4.45117,0 6.04152,-0.387017 6.5,-1.581787 z M 185.5,48 c 0,-3.481481 -0.0238,-3.5 -4.5,-3.5 -4.49045,0 -4.50067,0.0081 -4.81379,3.807396 l -0.31378,3.807397 4.81378,-0.307397 C 185.46247,51.502397 185.5,51.472709 185.5,48 Z m 17.31037,-0.25 0.31036,-3.75 h -4.98091 c -4.71218,0 -5.01617,0.160541 -5.63446,2.975601 -0.9363,4.262943 0.0624,5.166221 5.33523,4.82549 4.60021,-0.297266 4.66335,-0.348734 4.96978,-4.051091 z M 47.654923,49.456872 C 48.519413,47.204048 47.63959,46.789386 43.602184,47.546808 38.802072,48.447314 38.749736,51 43.531385,51 c 2.260383,0 3.74451,-0.555396 4.123538,-1.543128 z M 71,49.5 C 71,48.675 70.55,48 70,48 c -0.55,0 -1,0.675 -1,1.5 0,0.825 0.45,1.5 1,1.5 0.55,0 1,-0.675 1,-1.5 z m 144.81477,-0.25 c -0.39995,-2.108968 -4.84461,-2.839583 -7.76532,-1.276467 C 204.58597,49.827132 205.75783,51 211.07332,51 c 4.2915,0 5.02218,-0.269684 4.74145,-1.75 z m -146.493141,-10 c -0.309104,-3.7125 -0.09419,-8.4375 0.477575,-10.5 0.838528,-3.024757 0.772528,-3.75 -0.341267,-3.75 -2.998301,0 -4.228226,13.223125 -1.81489,19.512179 1.367042,3.562453 2.196757,0.961382 1.678582,-5.262179 z M 84.5,35.501606 C 84.5,28.088483 84.152376,25.001904 83.317388,25.001116 80.651958,24.998601 79.671775,37.513235 81.88808,43.25 83.80594,48.214256 84.5,46.155291 84.5,35.501606 Z m 18.91197,-0.0069 C 103.36356,29.717463 103.03196,24.698631 102.6751,24.341766 101.53582,23.202482 99,30.776528 99,35.318658 c 0,5.182682 1.7236,10.681579 3.34783,10.680762 0.80199,-4.03e-4 1.12542,-3.193095 1.06414,-10.504694 z M 129.34855,44.25 c 2.2179,-8.030402 1.27367,-18.506489 -1.71998,-19.083015 -1.01256,-0.195 -2.27718,0.08163 -2.81028,0.614729 -1.30581,1.305804 -1.16257,15.706483 0.1812,18.217336 1.32064,2.467626 3.69894,2.604859 4.34906,0.25095 z m 25.08002,0.178571 C 155.55758,43.299563 156,40.887963 156,35.86283 156,28.538399 154.87473,25 152.54542,25 c -1.11698,0 -1.18427,0.723957 -0.34855,3.75 0.56961,2.0625 0.81842,6.7875 0.55291,10.5 -0.26551,3.7125 -0.34997,6.75 -0.18769,6.75 0.16228,0 1.0022,-0.707143 1.86648,-1.571429 z M 174.36971,43.75 c 0.33164,-1.2375 0.60298,-4.95 0.60298,-8.25 0,-8.018865 -0.75528,-10.5 -3.19631,-10.5 -1.55398,0 -1.80327,0.383678 -1.13705,1.75 0.46932,0.9625 0.85497,5.6875 0.85699,10.5 0.002,5.850937 0.37919,8.75 1.13705,8.75 0.62335,0 1.40471,-1.0125 1.73634,-2.25 z m 17.62047,-4.202698 c 1.22307,-5.891503 0.56208,-11.844074 -1.50576,-13.560232 -1.94766,-1.616418 -2.54055,0.225783 -1.40096,4.353041 0.65865,2.385431 0.67759,5.472973 0.0546,8.900633 -1.61846,8.904618 1.00856,9.186981 2.85213,0.306558 z m -41.41366,1.896515 c 0.84363,-4.496963 0.0381,-13.229191 -1.34825,-14.615548 -2.09072,-2.090715 -3.22809,0.379162 -3.21462,6.980748 0.008,3.680041 0.285,7.703483 0.61664,8.940983 0.92165,3.439132 3.19731,2.6859 3.94623,-1.306183 z M 107.92971,32.55 c 0.0542,-6.127854 -0.20134,-7.678371 -1.11482,-6.764887 -1.44562,1.445612 -2.32632,12.09035 -1.31786,15.928443 0.67126,2.554754 0.79991,2.620146 1.54727,0.786444 0.44832,-1.1 0.84676,-5.5775 0.88541,-9.95 z M 64.169935,32.972026 64.5,28.444052 38.548905,28.266476 c -17.334707,-0.118617 -26.382363,0.180343 -27.25,0.900418 C 10.584507,29.759792 10,31.932701 10,33.995583 v 3.750693 L 36.919935,37.623138 63.83987,37.5 Z M 54,34 C 51.962378,33.347439 52.378518,33.180924 56.25,33.09968 58.8625,33.044856 61,33.45 61,34 c 0,1.157296 -3.38634,1.157296 -7,0 z M 17.5,33 c 0.339919,-0.55 3.403976,-0.946758 6.809017,-0.881685 C 29.255384,32.212844 29.89689,32.390095 27.5,33 c -4.556254,1.15937 -10.71653,1.15937 -10,0 z m 78.100106,4.234687 C 96.205164,36.830609 96.949844,34.5875 97.254949,32.25 L 97.809687,28 H 91.904843 C 88.634948,28 86,28.446235 86,29 c 0,0.55 1.2375,1.006891 2.75,1.015313 2.02273,0.01126 2.37332,0.25371 1.325675,0.916756 -1.109146,0.701968 -0.887862,1.001189 1,1.352203 C 92.409054,32.53219 91.8125,32.564332 89.75,32.355698 86.162765,31.992829 86,32.10709 86,34.988182 c 0,2.879051 0.187349,3.011143 4.25,2.996505 2.3375,-0.0084 4.745048,-0.345922 5.350106,-0.75 z M 223.625,37 H 246 V 34.081787 C 246,27.721263 247.21308,28 219.53168,28 h -25.25434 l 0.47791,2.5 c 0.42434,2.219779 0.97585,2.5 4.92034,2.5 2.70699,0 4.20101,0.390654 3.82441,1 -0.33992,0.55 -2.39148,1 -4.55902,1 C 195.96982,35 195,35.399889 195,36.625 c 0,1.286667 0.65064,1.494872 3.125,1 C 199.84375,37.28125 211.31875,37 223.625,37 Z M 200,31 c 0,-0.55 1.9125,-0.955144 4.25,-0.90032 3.61042,0.08468 3.87378,0.220167 1.75,0.90032 -3.59873,1.152516 -6,1.152516 -6,0 z m 28.7277,0.278268 c 1.77523,-0.220912 4.92523,-0.224542 7,-0.0081 2.07476,0.216475 0.6223,0.397221 -3.2277,0.401658 -3.85,0.0044 -5.54754,-0.17268 -3.7723,-0.393592 z M 78,34.081787 c 0,-1.605016 0.273145,-3.630016 0.606989,-4.5 C 79.091346,28.319573 78.485248,28 75.606989,28 H 72 v 4.5 c 0,4.333333 0.111111,4.5 3,4.5 2.647982,0 3,-0.342421 3,-2.918213 z M 121.01365,34.75 c 0.008,-1.2375 0.285,-3.2625 0.61664,-4.5 C 122.2032,28.11216 121.95328,28 116.61663,28 H 111 v 4.5 4.5 h 5 c 4.51447,0 5.00133,-0.218487 5.01365,-2.25 z M 144,32.5 V 28 h -6.11663 c -5.85517,0 -6.09086,0.09618 -5.51366,2.25 0.33164,1.2375 0.60913,3.2625 0.61664,4.5 0.0125,2.058951 0.48066,2.25 5.51365,2.25 h 5.5 z m -3.1875,-1.183114 c 0.72187,-0.288871 1.58437,-0.253344 1.91667,0.07895 0.33229,0.332292 -0.25834,0.568641 -1.3125,0.52522 -1.16495,-0.04798 -1.4019,-0.284941 -0.60417,-0.604167 z M 170,34.081787 C 170,28.677687 169.24986,28 163.26801,28 H 157.75 l 0.625,3.125 c 0.34375,1.71875 0.625,3.74375 0.625,4.5 0,1 1.5,1.375 5.5,1.375 5.41019,0 5.5,-0.04765 5.5,-2.918213 z m -10,-2.468288 c 0,-0.212575 1.35,-0.584638 3,-0.826807 1.65,-0.242168 3,-0.06824 3,0.386501 C 166,31.627937 164.65,32 163,32 c -1.65,0 -3,-0.173925 -3,-0.386501 z M 186.8075,32.75 186.5,28.5 181.61995,28.189897 c -4.18369,-0.265852 -4.79015,-0.07581 -4.25,1.331788 C 177.71648,30.424724 178,32.476771 178,34.081787 178,36.879197 178.18866,37 182.5575,37 h 4.5575 z M 180.5,34 c 0.33992,-0.55 1.60398,-0.993109 2.80902,-0.984687 1.78123,0.01245 1.91046,0.196601 0.69098,0.984687 -1.97012,1.273187 -4.28687,1.273187 -3.5,0 z M 50.744529,16.25 C 52.087628,5.1447363 51.563674,4 45.137611,4 38.38021,4 36.730433,8.531875 38.948957,21 l 0.80071,4.5 0.250333,-5 0.250333,-5 0.748206,4.5 c 0.411514,2.475 0.553631,4.8375 0.315817,5.25 -0.237815,0.4125 1.521369,0.75 3.909296,0.75 h 4.341687 z M 43,13 c 0,-3.1573787 0.383088,-4.8812728 1,-4.5 0.55,0.3399187 1,2.364919 1,4.5 0,2.135081 -0.45,4.160081 -1,4.5 -0.616912,0.381273 -1,-1.342621 -1,-4.5 z m 172.4254,11.75 c 0.19945,-0.6875 0.7951,-5.075 1.32367,-9.75 1.08442,-9.5911974 0.41275,-11.0127357 -5.1902,-10.9846872 -5.43989,0.027232 -5.85767,0.8519188 -5.38972,10.6393592 0.23347,4.883351 0.76748,9.433784 1.18669,10.112074 0.99764,1.614208 7.60039,1.600506 8.06956,-0.01675 z m -5.29403,-13.7 c -0.0989,-4.8579943 0.15226,-6.1663721 1.01775,-5.3008836 0.83776,0.8377666 0.87336,2.5853753 0.13137,6.4499996 L 210.26275,17.5 Z"
       id="path1"
       inkscape:export-filename="J:\design\images\Loom\loom-icon\path1.svg"
       inkscape:export-xdpi="12.713966"
       inkscape:export-ydpi="12.713966" />
  </g>
</svg>
