<svg xmlns="http://www.w3.org/2000/svg" viewBox="0 0 16 16" width="16" height="16">
  
  
  <rect x="3" y="1.5" width="10" height="13" rx="1" fill="#9C5E2E"></rect>
  
  <path d="M 3.5 2 L 9.5 2 L 12.5 5 L 12.5 14 L 3.5 14 Z" fill="#E8791A"></path>
  
  <polygon points="9.5,2 12.5,5 9.5,5" fill="#7D4620"></polygon>
  <polygon points="9.5,2.4 12.1,5 9.5,5" fill="#C07A3C"></polygon>
  
  <line x1="5" y1="7.5" x2="11" y2="7.5" stroke="#FFC85A" stroke-width="1" stroke-linecap="round"></line>
  <line x1="5" y1="9.5" x2="10.5" y2="9.5" stroke="#FFC85A" stroke-width="1" stroke-linecap="round"></line>
  <line x1="5" y1="11.5" x2="9.5" y2="11.5" stroke="#FFC85A" stroke-width="1" stroke-linecap="round"></line>
  
  <path d="M 2.5 6 Q 1.5 6 1.5 7 L 1.5 9 Q 1.5 10 2.5 10" stroke="#2E7DB8" stroke-width="1" fill="none" stroke-linecap="round" stroke-linejoin="round"></path>
  <path d="M 13.5 6 Q 14.5 6 14.5 7 L 14.5 9 Q 14.5 10 13.5 10" stroke="#2E7DB8" stroke-width="1" fill="none" stroke-linecap="round" stroke-linejoin="round"></path>
</svg>