<svg xmlns="http://www.w3.org/2000/svg" viewBox="0 0 16 16" width="16" height="16">
    <rect x="1" y="1.5" width="14" height="1.5" rx="0.4" fill="#7D4620"></rect>
    <rect x="1.3" y="1.7" width="13.4" height="0.7" rx="0.3" fill="#9C5E2E"></rect>
    <rect x="1" y="13" width="14" height="1.5" rx="0.4" fill="#7D4620"></rect>
    <rect x="1.3" y="13.2" width="13.4" height="0.7" rx="0.3" fill="#9C5E2E"></rect>
    <g stroke="#E8791A" stroke-width="0.7" stroke-linecap="round">
      <line x1="3" y1="3" x2="3" y2="13"></line><line x1="5" y1="3" x2="5" y2="13"></line>
      <line x1="7" y1="3" x2="7" y2="13"></line><line x1="9" y1="3" x2="9" y2="13"></line>
      <line x1="11" y1="3" x2="11" y2="13"></line><line x1="13" y1="3" x2="13" y2="13"></line>
    </g>
    <rect x="2" y="12" width="12" height="0" fill="#2E7DB8">
      <animate attributeName="y" values="12;9;9;12;12" keyTimes="0;0.45;0.5;0.95;1" dur="2.4s" repeatCount="indefinite"></animate>
      <animate attributeName="height" values="0;3;3;0;0" keyTimes="0;0.45;0.5;0.95;1" dur="2.4s" repeatCount="indefinite"></animate>
    </rect>
    <line x1="2" y1="9" x2="14" y2="9" stroke="#2E7DB8" stroke-width="0.6" stroke-linecap="round" opacity="0">
      <animate attributeName="opacity" values="0.4;0.4;0;0" keyTimes="0;0.45;0.5;1" dur="2.4s" repeatCount="indefinite"></animate>
      <animate attributeName="y1" values="9;9;5.5;5.5" keyTimes="0;0.5;0.5001;1" dur="2.4s" repeatCount="indefinite"></animate>
      <animate attributeName="y2" values="9;9;5.5;5.5" keyTimes="0;0.5;0.5001;1" dur="2.4s" repeatCount="indefinite"></animate>
    </line>
    <g>
      <ellipse cx="0" cy="0" rx="2.2" ry="0.9" fill="#F5A820"></ellipse>
      <ellipse cx="0" cy="-0.15" rx="1.4" ry="0.35" fill="#FFE680"></ellipse>
      <animateTransform attributeName="transform" type="translate" values="3,9; 13,9; 13,5.5; 3,5.5; 3,9" keyTimes="0;0.45;0.5;0.95;1" dur="2.4s" repeatCount="indefinite"></animateTransform>
    </g>
  </svg>